<?xml version="1.0" encoding="UTF-8" standalone="no"?>
<!DOCTYPE svg PUBLIC "-//W3C//DTD SVG 1.1//EN" "http://www.w3.org/Graphics/SVG/1.1/DTD/svg11.dtd">
<svg width="100%" height="100%" viewBox="0 0 735 117" version="1.1" xmlns="http://www.w3.org/2000/svg" xmlns:xlink="http://www.w3.org/1999/xlink" xml:space="preserve" xmlns:serif="http://www.serif.com/" style="fill-rule:evenodd;clip-rule:evenodd;stroke-linejoin:round;stroke-miterlimit:2;">
    <g transform="matrix(1.47525,0,0,1,-312.638,-377.017)">
        <path d="M275.806,419.665L260.624,419.665C260.346,416.767 259.78,414.185 258.925,411.918C258.07,409.651 256.972,407.716 255.632,406.114C254.292,404.511 252.749,403.284 251.005,402.432C249.26,401.58 247.371,401.153 245.337,401.153C241.663,401.153 238.462,402.491 235.736,405.168C233.009,407.844 230.894,411.73 229.392,416.827C227.89,421.923 227.139,428.102 227.139,435.364C227.139,442.83 227.896,449.102 229.41,454.182C230.923,459.261 233.043,463.097 235.77,465.688C238.497,468.278 241.651,469.574 245.233,469.574C247.244,469.574 249.11,469.182 250.831,468.398C252.553,467.614 254.084,466.463 255.424,464.946C256.764,463.429 257.879,461.58 258.769,459.398C259.659,457.216 260.277,454.727 260.624,451.932L275.806,452.034C275.413,456.841 274.437,461.469 272.877,465.918C271.317,470.366 269.226,474.338 266.603,477.832C263.98,481.327 260.86,484.088 257.244,486.116C253.627,488.145 249.543,489.159 244.991,489.159C238.659,489.159 233.003,487.045 228.023,482.818C223.043,478.591 219.115,472.472 216.238,464.46C213.361,456.449 211.922,446.75 211.922,435.364C211.922,423.943 213.378,414.227 216.29,406.216C219.201,398.205 223.153,392.094 228.144,387.884C233.136,383.673 238.751,381.568 244.991,381.568C249.104,381.568 252.923,382.42 256.447,384.125C259.971,385.83 263.096,388.31 265.823,391.565C268.55,394.821 270.774,398.801 272.496,403.506C274.217,408.21 275.321,413.597 275.806,419.665Z" style="fill-rule:nonzero;"/>
        <path d="M310.365,489.261C304.98,489.261 300.33,487.565 296.413,484.173C292.496,480.781 289.475,476.043 287.349,469.957C285.223,463.872 284.16,456.807 284.16,448.761C284.16,440.648 285.223,433.548 287.349,427.463C289.475,421.378 292.496,416.639 296.413,413.247C300.33,409.855 304.98,408.159 310.365,408.159C315.749,408.159 320.4,409.855 324.317,413.247C328.234,416.639 331.255,421.378 333.381,427.463C335.507,433.548 336.57,440.648 336.57,448.761C336.57,456.807 335.507,463.872 333.381,469.957C331.255,476.043 328.234,480.781 324.317,484.173C320.4,487.565 315.749,489.261 310.365,489.261ZM310.434,472.386C312.884,472.386 314.929,471.355 316.569,469.293C318.21,467.23 319.452,464.409 320.296,460.83C321.139,457.25 321.561,453.176 321.561,448.608C321.561,444.04 321.139,439.966 320.296,436.386C319.452,432.807 318.21,429.977 316.569,427.898C314.929,425.818 312.884,424.778 310.434,424.778C307.961,424.778 305.887,425.818 304.212,427.898C302.537,429.977 301.277,432.807 300.434,436.386C299.59,439.966 299.169,444.04 299.169,448.608C299.169,453.176 299.59,457.25 300.434,460.83C301.277,464.409 302.537,467.23 304.212,469.293C305.887,471.355 307.961,472.386 310.434,472.386Z" style="fill-rule:nonzero;"/>
        <path d="M354.837,489.057C352.55,489.057 350.591,487.855 348.962,485.452C347.333,483.048 346.518,480.159 346.518,476.784C346.518,473.443 347.333,470.58 348.962,468.193C350.591,465.807 352.55,464.614 354.837,464.614C357.056,464.614 358.997,465.807 360.661,468.193C362.324,470.58 363.156,473.443 363.156,476.784C363.156,479.034 362.769,481.088 361.995,482.946C361.221,484.804 360.21,486.287 358.962,487.395C357.714,488.503 356.339,489.057 354.837,489.057ZM354.837,434.034C352.55,434.034 350.591,432.841 348.962,430.455C347.333,428.068 346.518,425.17 346.518,421.761C346.518,418.42 347.333,415.565 348.962,413.196C350.591,410.827 352.55,409.642 354.837,409.642C357.056,409.642 358.997,410.827 360.661,413.196C362.324,415.565 363.156,418.42 363.156,421.761C363.156,424.045 362.769,426.116 361.995,427.974C361.221,429.832 360.21,431.307 358.962,432.398C357.714,433.489 356.339,434.034 354.837,434.034Z" style="fill-rule:nonzero;"/>
        <path d="M375.531,487.727L375.531,383L390.297,383L390.297,422.375L390.748,422.375C391.395,420.261 392.337,418.105 393.573,415.906C394.809,413.707 396.427,411.866 398.426,410.384C400.425,408.901 402.915,408.159 405.896,408.159C409.778,408.159 413.36,409.651 416.641,412.634C419.923,415.616 422.545,420.099 424.51,426.082C426.474,432.065 427.456,439.557 427.456,448.557C427.456,457.318 426.503,464.707 424.596,470.724C422.69,476.741 420.102,481.293 416.832,484.378C413.562,487.463 409.905,489.006 405.861,489.006C402.996,489.006 400.563,488.307 398.565,486.909C396.566,485.511 394.931,483.747 393.66,481.616C392.389,479.486 391.418,477.33 390.748,475.148L390.089,475.148L390.089,487.727L375.531,487.727ZM389.985,448.455C389.985,453.125 390.425,457.199 391.303,460.676C392.181,464.153 393.452,466.855 395.116,468.781C396.779,470.707 398.801,471.67 401.182,471.67C403.585,471.67 405.618,470.69 407.282,468.73C408.946,466.77 410.211,464.043 411.078,460.548C411.944,457.054 412.378,453.023 412.378,448.455C412.378,443.92 411.95,439.932 411.095,436.489C410.24,433.045 408.981,430.352 407.317,428.409C405.653,426.466 403.608,425.494 401.182,425.494C398.778,425.494 396.751,426.432 395.098,428.307C393.446,430.182 392.181,432.841 391.303,436.284C390.425,439.727 389.985,443.784 389.985,448.455Z" style="fill-rule:nonzero;"/>
        <path d="M471.409,454.284L471.409,409.182L486.175,409.182L486.175,487.727L471.998,487.727L471.998,473.46L471.443,473.46C470.242,478.063 468.249,481.761 465.464,484.557C462.679,487.352 459.288,488.75 455.29,488.75C451.732,488.75 448.6,487.557 445.897,485.17C443.193,482.784 441.084,479.392 439.571,474.994C438.057,470.597 437.289,465.33 437.266,459.193L437.266,409.182L452.032,409.182L452.032,455.307C452.055,459.943 452.899,463.608 454.562,466.301C456.226,468.994 458.456,470.341 461.252,470.341C463.032,470.341 464.696,469.736 466.244,468.526C467.792,467.315 469.046,465.517 470.005,463.131C470.964,460.744 471.432,457.795 471.409,454.284Z" style="fill-rule:nonzero;"/>
        <path d="M497.96,487.727L497.96,409.182L512.727,409.182L512.727,487.727L497.96,487.727ZM505.378,399.057C503.183,399.057 501.305,397.974 499.746,395.81C498.186,393.645 497.406,391.045 497.406,388.011C497.406,385.011 498.186,382.429 499.746,380.264C501.305,378.099 503.183,377.017 505.378,377.017C507.574,377.017 509.451,378.099 511.011,380.264C512.571,382.429 513.351,385.011 513.351,388.011C513.351,391.045 512.571,393.645 511.011,395.81C509.451,397.974 507.574,399.057 505.378,399.057Z" style="fill-rule:nonzero;"/>
        <rect x="524.512" y="383" width="14.766" height="104.727" style="fill-rule:nonzero;"/>
        <path d="M570.683,489.006C566.639,489.006 562.982,487.463 559.712,484.378C556.443,481.293 553.854,476.741 551.948,470.724C550.041,464.707 549.088,457.318 549.088,448.557C549.088,439.557 550.07,432.065 552.035,426.082C553.999,420.099 556.616,415.616 559.886,412.634C563.156,409.651 566.743,408.159 570.649,408.159C573.63,408.159 576.119,408.901 578.118,410.384C580.117,411.866 581.735,413.707 582.971,415.906C584.208,418.105 585.149,420.261 585.796,422.375L586.247,422.375L586.247,383L600.979,383L600.979,487.727L586.42,487.727L586.42,475.148L585.796,475.148C585.103,477.33 584.127,479.486 582.867,481.616C581.608,483.747 579.979,485.511 577.98,486.909C575.981,488.307 573.549,489.006 570.683,489.006ZM575.363,471.67C577.743,471.67 579.759,470.707 581.411,468.781C583.064,466.855 584.335,464.153 585.224,460.676C586.114,457.199 586.559,453.125 586.559,448.455C586.559,443.784 586.12,439.727 585.242,436.284C584.363,432.841 583.093,430.182 581.429,428.307C579.765,426.432 577.743,425.494 575.363,425.494C572.936,425.494 570.891,426.466 569.227,428.409C567.564,430.352 566.304,433.045 565.449,436.489C564.594,439.932 564.167,443.92 564.167,448.455C564.167,453.023 564.6,457.054 565.466,460.548C566.333,464.043 567.592,466.77 569.245,468.73C570.897,470.69 572.936,471.67 575.363,471.67Z" style="fill-rule:nonzero;"/>
    </g>
    <g transform="matrix(4.28626e-17,-0.7,1.13333,6.93967e-17,89.7386,532.983)">
        <rect x="720" y="510" width="10" height="15" style="fill:rgb(217,217,217);"/>
    </g>
    <g transform="matrix(4.28626e-17,-0.7,1.13333,6.93967e-17,89.7386,597.983)">
        <rect x="720" y="510" width="10" height="15" style="fill:rgb(217,217,217);"/>
    </g>
    <g transform="matrix(0.7,0,0,1.13333,135.739,-528.017)">
        <rect x="720" y="510" width="10" height="15" style="fill:rgb(217,217,217);"/>
    </g>
    <g transform="matrix(0.7,0,0,1.13333,202.739,-528.017)">
        <rect x="720" y="510" width="10" height="15" style="fill:rgb(217,217,217);"/>
    </g>
    <g transform="matrix(0.499026,0,0,0.507896,268.919,-202.175)">
        <ellipse cx="750" cy="449.5" rx="51" ry="49.5" style="fill:rgb(127,196,211);"/>
    </g>
    <g transform="matrix(0.499026,0,0,0.507896,268.919,-137.457)">
        <ellipse cx="750" cy="449.5" rx="51" ry="49.5" style="fill:rgb(127,211,140);"/>
    </g>
    <g transform="matrix(0.499026,0,0,0.507896,334.919,-202.175)">
        <ellipse cx="750" cy="449.5" rx="51" ry="49.5" style="fill:rgb(194,127,211);"/>
    </g>
    <g transform="matrix(0.499026,0,0,0.507896,334.919,-137.175)">
        <ellipse cx="750" cy="449.5" rx="51" ry="49.5" style="fill:rgb(211,208,127);"/>
    </g>
</svg>
